#!OML:ASF I:\Actors\actors\Patient Classification 2\Patient 1\Session 1\actor1.ASF
:FULLY-SPECIFIED
:DEGREES
828
root -0.800223 18.7368 4.83971 3.6622 -1.68636 -1.802
lowerback -0.262215 1.02647 -0.860678
upperback -2.3389 1.37281 0.624432
thorax -2.28602 0.709995 1.09812
lowerneck -11.9506 -3.15354 -2.13999
upperneck 21.6098 -4.77311 3.57637
head 8.86347 -2.04799 1.0366
rclavicle 1.85274e-014 -1.00386e-014
rhumerus -55.2174 -4.95542 -83.739
rradius 51.4981
rwrist 9.17263
rhand -7.9623 -39.2274
rfingers 7.12502
rthumb 17.9451 -68.4195
lclavicle 1.85274e-014 -1.00386e-014
lhumerus -41.986 0.39276 89.0583
lradius 41.5783
lwrist 8.33514
lhand -10.5124 -22.8827
lfingers 7.12502
lthumb 15.4902 6.51673
rfemur 0 0 0
rtibia 0
rfoot 0 0
rtoes 0
lfemur -5.64395 -9.12181 -12.7056
ltibia 20.736
lfoot -23.1597 13.5487
ltoes -54.7666
829
root -0.800982 18.7375 4.83427 3.66367 -1.68899 -1.82479
lowerback -0.222385 1.02095 -0.84272
upperback -2.35261 1.36553 0.629585
thorax -2.32203 0.706288 1.09256
lowerneck -11.9677 -3.12849 -2.21106
upperneck 21.6726 -4.74477 3.66019
head 8.89124 -2.0307 1.07981
rclavicle -1.06536e-014 -9.93923e-016
rhumerus -55.2521 -4.96024 -83.6803
rradius 51.2602
rwrist 9.26194
rhand -7.87084 -39.3204
rfingers 7.12502
rthumb 18.0331 -68.5044
lclavicle -1.06536e-014 -9.93923e-016
lhumerus -42.0982 0.613218 88.9347
lradius 41.567
lwrist 8.07158
lhand -10.5423 -21.7628
lfingers 7.12502
lthumb 15.4614 7.63892
rfemur 0 0 0
rtibia 0
rfoot 0 0
rtoes 0
lfemur -5.67159 -9.09554 -12.6686
ltibia 20.7468
lfoot -23.1305 13.5147
ltoes -54.7214
830
root -0.801433 18.7376 4.82916 3.66477 -1.6917 -1.85938
lowerback -0.195298 1.02179 -0.803561
upperback -2.3562 1.36714 0.640206
thorax -2.34031 0.706521 1.08093
lowerneck -12.0044 -3.10096 -2.28577
upperneck 21.7531 -4.71561 3.75666
head 8.92907 -2.01149 1.12782
rclavicle 1.41634e-014 -4.96962e-015
rhumerus -55.2457 -5.04709 -83.53
rradius 50.8961
rwrist 9.43694
rhand -7.91539 -39.2934
rfingers 7.12502
rthumb 17.9903 -68.4813
lclavicle 1.41634e-014 -4.96962e-015
lhumerus -42.1718 0.800871 88.8126
lradius 41.4278
lwrist 7.90882
lhand -10.4755 -21.1345
lfingers 7.12502
lthumb 15.5257 8.26224
rfemur 0 0 0
rtibia 0
rfoot 0 0
rtoes 0
lfemur -5.69676 -9.06419 -12.6224
ltibia 20.7573
lfoot -23.0901 13.491
ltoes -54.7139
831
root -0.801901 18.7381 4.8256 3.68268 -1.69379 -1.88234
lowerback -0.203308 1.02589 -0.783895
upperback -2.35478 1.37308 0.650341
thorax -2.33427 0.709178 1.08037
lowerneck -12.0374 -3.08005 -2.31807
upperneck 21.7949 -4.68815 3.78898
head 8.95027 -1.99684 1.14691
rclavicle 9.0416e-015 -1.78906e-015
rhumerus -55.2327 -5.15303 -83.3422
rradius 50.5055
rwrist 9.65543
rhand -7.98493 -39.1545
rfingers 7.12502
rthumb 17.9233 -68.3486
lclavicle 9.0416e-015 -1.78906e-015
lhumerus -42.2038 0.995869 88.6688
lradius 41.2009
lwrist 7.84512
lhand -10.2092 -20.9837
lfingers 7.12502
lthumb 15.7822 8.3929
rfemur 0 0 0
rtibia 0
rfoot 0 0
rtoes 0
lfemur -5.72816 -9.05196 -12.5875
ltibia 20.7596
lfoot -23.0703 13.4762
ltoes -54.7157
832
root -0.801951 18.7393 4.82155 3.7192 -1.6952 -1.86685
lowerback -0.226996 1.03022 -0.809508
upperback -2.35364 1.37869 0.64978
thorax -2.32053 0.712426 1.0945
lowerneck -12.0446 -3.06604 -2.31935
upperneck 21.7795 -4.66541 3.78073
head 8.94534 -1.98717 1.14684
rclavicle -1.44119e-015 -7.05686e-015
rhumerus -55.2568 -5.29319 -83.1224
rradius 50.1643
rwrist 9.92582
rhand -7.9644 -38.9674
rfingers 7.12502
rthumb 17.9431 -68.1597
lclavicle -1.44119e-015 -7.05686e-015
lhumerus -42.2684 1.21057 88.5267
lradius 41.0399
lwrist 7.71946
lhand -10.0113 -20.813
lfingers 7.12502
lthumb 15.9728 8.54847
rfemur 0 0 0
rtibia 0
rfoot 0 0
rtoes 0
lfemur -5.77491 -9.08972 -12.5937
ltibia 20.7493
lfoot -23.0767 13.5078
ltoes -54.7426
833
root -0.801537 18.7403 4.81617 3.74181 -1.70756 -1.82097
lowerback -0.222845 1.04051 -0.865421
upperback -2.35095 1.39161 0.64077
thorax -2.3216 0.719904 1.11627
lowerneck -12.0308 -3.06511 -2.31254
upperneck 21.7485 -4.66153 3.76894
head 8.93148 -1.98655 1.14234
rclavicle 4.0813e-015 -8.05078e-015
rhumerus -55.3047 -5.41112 -82.9
rradius 49.8543
rwrist 10.1277
rhand -7.91018 -38.8168
rfingers 7.12502
rthumb 17.9953 -68.0043
lclavicle 4.0813e-015 -8.05078e-015
lhumerus -42.3618 1.41976 88.3925
lradius 40.8634
lwrist 7.45653
lhand -9.9866 -20.7892
lfingers 7.12502
lthumb 15.9965 8.5703
rfemur 0 0 0
rtibia 0
rfoot 0 0
rtoes 0
lfemur -5.8089 -9.08156 -12.6382
ltibia 20.7281
lfoot -23.0565 13.5433
ltoes -54.8348
